#format: frame checksums
#version: 1
#hash: MD5
#tb 0: 1/192000
#stream#, dts,        pts, duration,     size, hash
0,          0,          0,     2048,     8192, 0829f71740aab1ab98b33eae21dee122
0,        512,        512,     2048,     8192, c8ca1cff44674809d464ec39cf1bd1e9
0,       1024,       1024,     2048,     8192, d67d26915ca86554568aac685c9a6dc3
0,       1536,       1536,     2048,     8192, 8fdf69fdac9985ac4f9470a7b8e8529d
0,       2048,       2048,     2048,     8192, dc8a9ca39b38c98147f2308f985ff648
0,       2560,       2560,     2048,     8192, ea13b97373762ab16d0f664013fdc962
